<svg width="140" height="51" viewBox="0 0 140 51" fill="none" xmlns="http://www.w3.org/2000/svg">
<path d="M53.2937 33.1493C52.7723 33.5887 51.9873 33.8055 51.2022 33.8055C49.1617 33.8055 47.9941 32.6742 47.9941 30.5185V25.8271H46.4609V24.001H47.9941V21.7741H50.1735V24.001H52.6646V25.8271H50.1735V30.4651C50.1735 31.4152 50.6269 31.9259 51.463 31.9259C51.9164 31.9259 52.3528 31.7983 52.6816 31.5251L53.2909 33.1493H53.2937Z" fill="white"/>
<path d="M63.4563 29.5327H56.1531C56.4138 30.958 57.5474 31.8695 59.1685 31.8695C60.2142 31.8695 61.0332 31.5221 61.6964 30.8095L62.864 32.2169C62.028 33.2591 60.7215 33.8055 59.1175 33.8055C55.9972 33.8055 53.9766 31.7062 53.9766 28.8023C53.9766 25.8984 56.017 23.817 58.7859 23.817C61.5547 23.817 63.4903 25.8063 63.4903 28.8558C63.4903 29.0398 63.4733 29.313 63.4563 29.5327ZM56.1361 28.0184H61.4158C61.243 26.614 60.2142 25.646 58.783 25.646C57.3519 25.646 56.343 26.5962 56.1332 28.0184H56.1361Z" fill="white"/>
<path d="M74.4014 28.0897V33.6778H72.2221V28.3836C72.2221 26.6496 71.403 25.8093 70.0087 25.8093C68.4585 25.8093 67.4128 26.7951 67.4128 28.7489V33.6778H65.2334V23.9268H67.3079V25.1858C68.0221 24.292 69.1557 23.817 70.516 23.817C72.7464 23.817 74.4014 25.1501 74.4014 28.0897Z" fill="white"/>
<path d="M82.4187 33.1493C81.8973 33.5887 81.1123 33.8055 80.3272 33.8055C78.2867 33.8055 77.1191 32.6742 77.1191 30.5185V25.8271H75.5859V24.001H77.1191V21.7741H79.2985V24.001H81.7896V25.8271H79.2985V30.4651C79.2985 31.4152 79.7519 31.9259 80.588 31.9259C81.0414 31.9259 81.4778 31.7983 81.8066 31.5251L82.4159 33.1493H82.4187Z" fill="white"/>
<path d="M83.0986 28.8023C83.0986 25.8806 85.1901 23.817 88.0496 23.817C90.9092 23.817 93.0177 25.8806 93.0177 28.8023C93.0177 31.724 90.9432 33.8055 88.0496 33.8055C85.1561 33.8055 83.0986 31.724 83.0986 28.8023ZM90.8185 28.8023C90.8185 26.9406 89.6339 25.7529 88.0468 25.7529C86.4598 25.7529 85.2922 26.9406 85.2922 28.8023C85.2922 30.664 86.4768 31.8517 88.0468 31.8517C89.6168 31.8517 90.8185 30.664 90.8185 28.8023Z" fill="white"/>
<path d="M93.6953 32.7099L94.5313 30.9759C95.3504 31.543 96.6058 31.9438 97.7735 31.9438C99.1508 31.9438 99.7261 31.543 99.7261 30.866C99.7261 29.0043 93.9759 30.7561 93.9759 26.8664C93.9759 25.0225 95.5629 23.817 98.071 23.817C99.3095 23.817 100.721 24.1288 101.557 24.6573L100.721 26.3913C99.8309 25.842 98.9439 25.6609 98.054 25.6609C96.7305 25.6609 96.1014 26.1182 96.1014 26.7566C96.1014 28.7281 101.852 26.9763 101.852 30.7918C101.852 32.6178 100.248 33.8055 97.6346 33.8055C96.0844 33.8055 94.5313 33.3305 93.6953 32.7099Z" fill="white"/>
<path d="M103.855 28.9122C103.855 26.0647 105.791 24.0723 108.455 24.0723C109.9 24.0723 111.156 24.6572 111.907 25.8241L111.261 26.317C110.598 25.3491 109.589 24.8918 108.455 24.8918C106.313 24.8918 104.743 26.4982 104.743 28.9092C104.743 31.3202 106.31 32.9266 108.455 32.9266C109.589 32.9266 110.598 32.4693 111.261 31.5013L111.907 31.9942C111.159 33.1433 109.903 33.7461 108.455 33.7461C105.788 33.7461 103.855 31.7389 103.855 28.9062V28.9122Z" fill="white"/>
<path d="M120.394 27.6354V33.6808H119.558V31.9824C118.983 33.078 117.869 33.755 116.282 33.755C114.241 33.755 113.006 32.6593 113.006 31.0352C113.006 29.5921 113.879 28.3688 116.404 28.3688H119.524V27.6027C119.524 25.8331 118.6 24.8829 116.823 24.8829C115.568 24.8829 114.437 25.3758 113.686 26.0884L113.25 25.4322C114.156 24.5919 115.48 24.0812 116.891 24.0812C119.139 24.0812 120.394 25.2867 120.394 27.6413V27.6354ZM119.524 30.8689V29.0784H116.421C114.539 29.0784 113.876 29.9009 113.876 30.9966C113.876 32.2377 114.8 33.0038 116.404 33.0038C118.008 33.0038 119 32.2377 119.524 30.8659V30.8689Z" fill="white"/>
<path d="M131.654 28.9122C131.654 31.7775 129.718 33.752 127.156 33.752C125.552 33.752 124.195 32.9295 123.461 31.5073V37.2231H122.588V24.1465H123.424V26.3913C124.138 24.9304 125.515 24.0723 127.153 24.0723C129.715 24.0723 131.651 26.0617 131.651 28.9122H131.654ZM130.781 28.9122C130.781 26.5189 129.194 24.8948 127.102 24.8948C125.011 24.8948 123.444 26.5189 123.444 28.9122C123.444 31.3054 125.011 32.9295 127.102 32.9295C129.194 32.9295 130.781 31.3054 130.781 28.9122Z" fill="white"/>
<path d="M19.7815 9.81989H33.5321C36.0204 9.81989 38.0467 11.9399 38.0467 14.5469V28.9537C38.0467 31.5606 36.0204 33.6807 33.5321 33.6807H30.9957V36.3381C30.9957 38.9451 28.9694 41.0652 26.4811 41.0652H12.7333C10.2451 41.0652 8.21875 38.9451 8.21875 36.3352V21.9314C8.21875 19.3244 10.2451 17.2044 12.7333 17.2044H14.1475V18.3772H12.7333C10.8629 18.3772 9.34102 19.9717 9.34102 21.9314V36.3322C9.34102 38.2919 10.8629 39.8864 12.7333 39.8864H26.4811C28.3515 39.8864 29.8734 38.2919 29.8734 36.3322V33.6747H26.0617L27.1811 32.5019H29.8734V28.0183L26.7758 31.2637H25.1916L29.8706 26.3585V22.1452L21.1702 31.2637H19.7815C19.738 31.2637 19.6971 31.2611 19.6562 31.2584C19.6357 31.2571 19.6152 31.2558 19.5945 31.2548L29.6609 20.7051C29.3179 19.7312 28.5811 18.9562 27.6515 18.597L17.5823 29.1467C17.5766 29.0813 17.5738 29.016 17.5738 28.9507V27.4958L26.2742 18.3802H22.2528L17.5738 23.2824V21.6226L20.6685 18.3802L21.7908 17.2073H26.4783C26.7645 17.2073 27.0451 17.237 27.3171 17.2905C27.7337 17.3736 28.1333 17.5161 28.5017 17.7121C29.369 18.1664 30.0803 18.9087 30.5139 19.8173C30.7038 20.2033 30.8398 20.619 30.9163 21.0584C30.9673 21.3435 30.9957 21.6375 30.9957 21.9373V32.5078H33.5321C35.4026 32.5078 36.9244 30.9133 36.9244 28.9537V14.5499C36.9244 12.5902 35.4026 10.9957 33.5321 10.9957H19.7843C18.322 10.9957 17.075 11.9666 16.5961 13.3266H15.4228C15.9358 11.3075 17.6957 9.81989 19.7815 9.81989Z" fill="white"/>
<path d="M24.4747 33.6776H19.7815C17.2933 33.6776 15.267 31.5576 15.267 28.9506V14.4993H16.3864V17.2073H20.1953L19.0759 18.3801H16.3864V28.9506C16.3864 30.9103 17.9083 32.5048 19.7787 32.5048H25.5941L24.4747 33.6776Z" fill="white"/>
</svg>
